# xmcd
#
# Track frame offsets:
#	150
#	20365
#	33788
#	42804
#	58642
#	77221
#	91040
#	103459
#	116648
#	133228
#	142600
#	157694
#
# Disc length: 2327 seconds
#
# Revision: 5
# Processed by: cddbd v1.5PL3 Copyright (c) Steve Scherf et al.
# Submitted via: dBpowerAMP V4.0
#
DISCID=8d09150c
DTITLE=岡崎　司 - 阿弖流為
DYEAR=2002
DGENRE=Soundtrack
TTITLE0=阿弖流為
TTITLE1=凶の都
TTITLE2=都の虎
TTITLE3=北の狼
TTITLE4=日高見
TTITLE5=阿弖流為と田村麻呂
TTITLE6=怨霊
TTITLE7=鈴鹿
TTITLE8=荒覇吐
TTITLE9=限りなき戦い
TTITLE10=勇者の剣
TTITLE11=蝦夷の空
EXTD=
EXTT0=
EXTT1=
EXTT2=
EXTT3=
EXTT4=
EXTT5=
EXTT6=
EXTT7=
EXTT8=
EXTT9=
EXTT10=
EXTT11=
PLAYORDER=
